<svg id="Capa_1" enable-background="new 0 0 512 512" height="512" viewBox="0 0 512 512" width="512" xmlns="http://www.w3.org/2000/svg"><g><g><path d="m418.39 323.634c-21.468-18.063-40.599-38.268-56.861-60.052-12-16.074-27.75-29.396-45.549-38.526-18.414-9.445-39.155-14.438-59.979-14.438l-10 73.104v131.765l10 58.63.367-.001h.248c15.864 0 31.005 4.212 43.8 12.189 16.01 9.98 34.288 15.185 53.165 15.185 1.774 0 3.556-.046 5.34-.138 52.128-2.698 94.008-45.736 95.344-97.979.787-30.83-12.288-59.893-35.875-79.739z" fill="#c47e4e"/><path d="m196.021 225.056c-17.798 9.13-33.549 22.452-45.549 38.525-16.262 21.784-35.393 41.988-56.862 60.053-23.587 19.846-36.662 48.909-35.874 79.738 1.336 52.242 43.216 95.279 95.344 97.979 20.761 1.083 40.989-4.128 58.506-15.047 12.796-7.978 27.936-12.189 43.71-12.189h.243l.46.002v-263.5c-20.823 0-41.564 4.994-59.978 14.439z" fill="#e1bb78"/></g><path d="m170.328 168.072c.389.008.776.012 1.165.012 14.814 0 28.752-5.685 39.357-16.079 10.891-10.675 16.889-24.953 16.889-40.205v-1.313c0-8.539-1.79-16.805-5.321-24.571l-24.109-57.899c-4.399-10.565-14.637-17.437-26.081-17.505-.058-.001-.116-.001-.174-.001-11.375 0-21.612 6.731-26.116 17.189l-24.24 56.296c-4.246 8.324-6.487 17.643-6.487 26.989 0 14.688 5.686 28.741 16.009 39.573 10.484 10.999 24.372 17.219 39.108 17.514z" fill="#e1bb78"/><path d="m339.376 168.072c.389.008.776.012 1.165.012 14.814 0 28.752-5.685 39.358-16.079 10.891-10.676 16.889-24.954 16.889-40.205v-1.313c0-8.538-1.79-16.804-5.321-24.571l-24.109-57.899c-4.399-10.565-14.636-17.437-26.08-17.505-.059-.001-.116-.001-.174-.001-11.374 0-21.612 6.732-26.116 17.189l-24.24 56.297c-4.245 8.323-6.486 17.642-6.486 26.988 0 14.688 5.686 28.741 16.009 39.573 10.481 10.999 24.37 17.219 39.105 17.514z" fill="#c47e4e"/><path d="m112.527 231.398v-1.314c0-8.539-1.79-16.803-5.321-24.569l-24.11-57.902c-4.399-10.564-14.637-17.436-26.081-17.504-.058 0-.115-.001-.173-.001-11.374 0-21.613 6.733-26.115 17.19l-24.241 56.295c-4.245 8.326-6.486 17.644-6.486 26.989 0 14.688 5.686 28.741 16.009 39.573 10.482 10.999 24.371 17.219 39.107 17.515.389.008.776.012 1.165.012 14.814 0 28.752-5.685 39.357-16.079 10.891-10.675 16.889-24.953 16.889-40.205z" fill="#e1bb78"/><path d="m506.679 205.513-24.11-57.901c-4.399-10.564-14.637-17.436-26.081-17.504-.058 0-.115-.001-.173-.001-11.374 0-21.613 6.733-26.115 17.19l-24.241 56.296c-4.245 8.326-6.486 17.644-6.486 26.989 0 14.688 5.686 28.741 16.009 39.573 10.482 10.999 24.371 17.219 39.107 17.515.389.008.776.012 1.165.012 14.814 0 28.752-5.685 39.357-16.079 10.891-10.675 16.889-24.953 16.889-40.205v-1.314c0-8.541-1.79-16.805-5.321-24.571z" fill="#c47e4e"/></g></svg>